<?xml version="1.0" standalone="no"?>
<!DOCTYPE svg PUBLIC "-//W3C//DTD SVG 20010904//EN"
 "http://www.w3.org/TR/2001/REC-SVG-20010904/DTD/svg10.dtd">
<svg version="1.0" xmlns="http://www.w3.org/2000/svg"
 width="600.000000pt" height="600.000000pt" viewBox="0 0 600.000000 600.000000"
 preserveAspectRatio="xMidYMid meet">

<g transform="translate(0.000000,600.000000) scale(0.100000,-0.100000)"
fill="#000000" stroke="none">
<path d="M2780 5992 c-69 -7 -120 -25 -120 -44 0 -16 30 -7 49 13 22 24 57 22
53 -4 -2 -13 4 -17 28 -17 25 0 30 -3 26 -18 -4 -12 4 -25 25 -42 17 -14 39
-32 48 -41 9 -9 23 -18 32 -21 12 -5 15 -1 11 17 -6 31 9 38 73 30 37 -5 55
-12 55 -21 0 -8 -7 -14 -15 -14 -8 0 -15 -5 -15 -11 0 -6 7 -8 16 -5 8 3 24 1
35 -4 20 -11 24 -4 19 30 -1 11 1 12 10 4 8 -8 22 -9 47 -2 29 8 39 6 57 -10
38 -34 46 -35 70 -7 20 23 29 26 55 20 17 -3 31 -10 31 -15 0 -13 32 -21 44
-11 21 18 97 25 106 11 6 -10 14 -8 35 9 15 11 33 21 40 21 7 0 15 7 19 15 7
19 64 20 99 2 28 -15 95 -11 80 4 -17 17 -243 70 -381 89 -147 22 -499 33
-632 22z"/>
<path d="M2755 5910 c-3 -5 1 -10 9 -10 9 0 16 5 16 10 0 6 -4 10 -9 10 -6 0
-13 -4 -16 -10z"/>
<path d="M2251 5881 c-23 -12 -30 -20 -20 -24 9 -3 6 -6 -8 -6 -12 -1 -25 4
-28 9 -8 13 -44 13 -84 -1 -37 -13 -40 -25 -8 -35 35 -12 47 -13 53 -3 3 5 16
9 30 9 24 0 31 -10 17 -24 -12 -12 -10 -29 7 -48 9 -12 18 -14 24 -8 15 15 26
12 19 -6 -5 -14 -1 -15 28 -9 38 8 67 37 76 78 6 30 21 45 32 31 9 -13 88 -11
102 3 15 15 -49 26 -104 18 -35 -6 -46 -3 -61 14 -23 25 -31 25 -75 2z"/>
<path d="M2530 5880 c13 -8 12 -11 -5 -25 -19 -15 -19 -15 10 -13 23 2 32 -2
40 -19 9 -21 55 -34 55 -15 -1 13 -35 47 -67 65 -32 18 -60 24 -33 7z"/>
<path d="M3646 5861 c-18 -7 -18 -8 -3 -14 9 -3 17 -13 17 -20 0 -16 28 -43
36 -35 3 3 8 22 11 42 5 33 4 36 -18 35 -13 0 -33 -4 -43 -8z"/>
<path d="M2377 5750 c-5 -18 -2 -21 21 -18 32 4 37 32 6 36 -15 2 -23 -3 -27
-18z"/>
<path d="M2651 5761 c-11 -7 -9 -11 9 -21 25 -14 33 -9 24 14 -7 18 -13 19
-33 7z"/>
<path d="M3234 5729 c7 -32 -13 -44 -40 -25 -31 21 -62 25 -75 10 -10 -13 -14
-12 -29 1 -18 17 -62 13 -87 -8 -20 -15 -16 -21 43 -62 46 -32 65 -39 105 -39
26 0 58 5 71 11 13 6 35 14 51 17 22 5 27 12 27 36 0 23 -6 33 -24 40 -13 5
-30 17 -36 27 -10 16 -10 14 -6 -8z m-100 -70 c-3 -5 -14 -9 -26 -9 -17 0 -18
3 -8 14 12 15 44 10 34 -5z"/>
<path d="M2950 5726 c0 -9 5 -16 10 -16 6 0 10 4 10 9 0 6 -4 13 -10 16 -5 3
-10 -1 -10 -9z"/>
<path d="M3327 5722 c-15 -17 -15 -19 12 -35 27 -16 28 -16 40 9 6 14 9 30 6
35 -10 15 -41 10 -58 -9z"/>
<path d="M3230 5610 c0 -5 5 -10 10 -10 6 0 10 5 10 10 0 6 -4 10 -10 10 -5 0
-10 -4 -10 -10z"/>
<path d="M1288 5425 c-17 -20 -28 -24 -49 -20 -55 12 -382 -285 -570 -520
-349 -435 -557 -915 -641 -1478 -30 -205 -30 -609 0 -814 69 -465 219 -863
466 -1238 138 -209 338 -447 359 -426 8 8 4 17 -11 31 -12 12 -22 24 -22 28 1
23 74 76 94 69 8 -3 23 1 35 9 16 12 19 19 11 34 -13 25 11 44 45 36 16 -4 34
-1 46 8 11 7 28 12 38 9 12 -3 28 8 50 35 17 22 31 45 31 51 0 6 7 11 15 11 8
0 15 6 15 13 0 8 9 22 20 32 11 10 20 23 20 28 0 6 7 19 16 29 14 14 15 20 4
33 -11 13 -8 20 18 47 18 17 32 34 32 39 0 5 21 8 46 6 32 -3 50 -10 60 -26
13 -19 25 -21 100 -21 l84 0 0 -26 c0 -15 7 -32 16 -39 16 -11 16 -14 0 -46
-12 -23 -15 -46 -11 -71 6 -35 9 -38 40 -38 31 0 33 -2 37 -40 2 -22 -1 -45
-6 -50 -22 -22 30 -28 104 -12 36 9 50 8 68 -5 21 -13 26 -13 40 0 10 9 44 23
77 32 33 10 73 28 88 41 16 13 32 24 35 24 4 0 20 11 36 25 36 31 44 31 58 0
9 -20 16 -24 32 -19 12 4 32 8 46 10 14 1 40 7 59 13 19 6 44 8 57 5 20 -5 23
-2 26 28 3 33 3 33 58 34 50 2 58 -1 83 -30 21 -22 30 -27 34 -17 3 7 14 22
23 31 10 10 23 28 30 39 6 12 19 21 29 21 12 0 21 10 25 25 7 26 69 65 106 65
11 0 32 14 47 30 14 17 34 30 44 30 13 0 19 9 21 32 2 24 9 34 23 36 11 2 34
17 51 33 27 27 34 29 80 23 48 -6 94 -35 94 -59 0 -6 6 -19 13 -29 11 -15 18
-16 57 -6 25 6 56 13 70 16 14 3 41 20 60 39 33 32 40 34 100 34 36 0 80 3 98
6 20 5 38 3 46 -4 11 -9 19 -9 34 0 17 10 24 10 37 -1 9 -7 14 -19 11 -25 -2
-7 4 -26 14 -42 14 -24 17 -46 14 -114 -1 -46 -5 -97 -9 -114 -3 -16 -8 -45
-11 -63 -5 -25 -3 -32 9 -32 8 0 17 5 19 11 2 6 19 14 38 18 32 7 35 10 32 40
-3 37 13 71 33 71 8 0 41 24 75 54 56 50 64 54 127 61 36 4 77 12 89 17 17 8
31 7 56 -5 52 -24 63 -24 89 4 31 33 56 42 63 23 3 -8 12 -14 21 -14 17 0 20
-11 5 -26 -8 -8 -7 -14 3 -22 9 -8 23 -8 50 2 50 17 52 20 25 49 -13 13 -31
37 -42 52 l-18 27 -22 -21 c-29 -28 -44 -26 -52 3 -7 29 1 46 22 46 8 0 14 6
14 14 0 8 9 18 20 21 22 7 27 31 8 38 -20 6 10 37 37 37 29 0 36 9 24 32 -13
25 17 51 89 73 50 16 54 16 91 -3 l39 -21 19 21 c16 18 26 20 86 15 38 -3 75
-11 83 -18 16 -13 19 -60 4 -75 -7 -7 -4 -16 10 -29 17 -16 25 -17 59 -7 21 7
44 12 50 12 16 0 51 -84 51 -121 0 -16 5 -29 11 -29 16 0 79 -54 79 -67 0 -7
-7 -13 -15 -13 -8 0 -32 -15 -52 -34 -31 -27 -44 -33 -70 -29 -28 4 -33 2 -33
-14 0 -22 -29 -53 -49 -53 -6 0 -21 -8 -32 -19 l-20 -18 22 -43 c18 -34 20
-46 11 -61 -9 -14 -9 -25 -1 -42 9 -20 8 -30 -7 -52 -15 -23 -22 -26 -52 -20
-33 6 -72 -14 -72 -37 0 -14 81 -82 109 -92 55 -18 100 -81 81 -115 -5 -11
-10 -27 -10 -36 0 -9 -14 -28 -31 -43 -18 -14 -38 -41 -46 -60 -8 -19 -25 -44
-39 -56 -20 -17 -24 -27 -19 -49 4 -15 11 -27 15 -27 23 0 214 162 346 294
353 352 586 732 738 1205 100 310 138 560 139 906 1 326 -31 555 -120 859
-113 392 -340 805 -609 1111 -49 56 -60 64 -83 59 -58 -13 -62 -16 -59 -37 3
-19 -2 -22 -37 -24 -84 -6 -101 -14 -161 -77 -97 -101 -100 -106 -84 -117 13
-8 12 -12 -5 -24 -11 -9 -28 -22 -38 -30 -23 -20 -93 -20 -104 0 -6 11 -28 15
-78 16 -89 1 -108 6 -101 26 4 9 -1 21 -11 28 -16 12 -16 14 0 38 11 17 15 36
11 56 -6 27 -11 31 -39 31 -31 0 -32 1 -31 43 1 47 1 47 -100 31 -24 -3 -51
-1 -63 5 -16 9 -26 8 -43 -3 -13 -7 -39 -17 -59 -20 -39 -7 -155 -61 -164 -77
-9 -14 -22 -11 -42 10 -16 17 -24 18 -73 8 -30 -5 -72 -10 -93 -11 -32 0 -37
-3 -34 -18 7 -27 -13 -37 -71 -35 -44 2 -57 7 -72 27 l-19 25 -37 -42 c-21
-24 -46 -43 -56 -43 -10 0 -18 -7 -18 -15 0 -18 -70 -55 -103 -55 -13 0 -32
-9 -42 -20 -10 -11 -26 -20 -37 -20 -11 0 -18 -7 -18 -20 0 -13 -10 -24 -26
-31 -15 -5 -39 -20 -54 -33 -24 -20 -34 -22 -76 -16 -46 7 -68 23 -99 73 -9
14 -17 15 -71 3 -34 -7 -77 -25 -95 -39 -32 -24 -43 -26 -166 -30 -98 -4 -135
-2 -143 7 -5 7 -7 16 -3 19 3 4 -3 17 -14 30 -17 18 -20 33 -18 82 2 65 12
113 27 132 14 17 -1 36 -21 27 -9 -3 -29 -9 -46 -13 -27 -6 -30 -10 -27 -39 3
-29 0 -34 -31 -47 -18 -7 -40 -21 -47 -30 -39 -47 -212 -85 -295 -64 -38 10
-46 8 -78 -12 -31 -21 -34 -26 -24 -47 9 -20 8 -27 -6 -37 -9 -7 -17 -18 -17
-24 0 -7 -4 -10 -8 -7 -4 2 -14 0 -22 -5 -12 -7 -12 -11 -2 -17 17 -11 -3 -29
-38 -34 -19 -2 -24 -8 -22 -24 6 -43 -129 -82 -178 -52 -16 10 -24 10 -42 -2
-15 -9 -45 -13 -88 -11 -75 2 -95 18 -85 67 7 38 -9 47 -57 33 -18 -5 -38 -9
-45 -9 -17 0 -53 63 -53 94 0 14 -6 26 -12 26 -7 0 -26 11 -42 23 -30 24 -29
47 2 47 9 1 30 11 46 24 15 13 36 21 46 19 10 -3 28 6 43 21 14 14 32 26 39
26 7 0 21 7 32 15 18 13 18 15 -4 50 -16 25 -19 39 -12 48 7 7 7 18 2 27 -5 8
-2 22 7 37 12 17 25 23 53 23 21 0 43 7 50 14 9 12 5 21 -22 45 -18 17 -39 31
-47 31 -21 0 -80 39 -91 60 -14 25 7 70 48 104 17 15 32 34 32 42 0 7 8 18 18
23 40 24 43 28 36 54 -8 32 -32 35 -62 7 -12 -11 -31 -20 -42 -20 -30 0 -80
28 -80 45 0 14 -29 35 -49 35 -6 0 -21 -11 -33 -25z m79 -311 c-3 -3 -12 -4
-19 -1 -8 3 -5 6 6 6 11 1 17 -2 13 -5z m3648 -293 c7 -12 -12 -24 -25 -16
-11 7 -4 25 10 25 5 0 11 -4 15 -9z m-1235 -115 c0 -3 -4 -8 -10 -11 -5 -3
-10 -1 -10 4 0 6 5 11 10 11 6 0 10 -2 10 -4z m-545 -196 c-5 -8 -11 -8 -17
-2 -6 6 -7 16 -3 22 5 8 11 8 17 2 6 -6 7 -16 3 -22z m-794 -415 c140 -25 231
-68 302 -144 82 -88 131 -221 139 -381 l3 -65 -241 -3 -241 -2 -7 57 c-10 86
-27 132 -59 164 -24 25 -37 29 -80 29 -99 0 -151 -58 -151 -165 0 -131 61
-182 384 -318 253 -107 368 -218 426 -412 24 -81 24 -284 1 -375 -54 -207
-181 -324 -415 -382 -119 -30 -415 -32 -537 -4 -257 59 -376 207 -392 489 l-6
107 257 0 256 0 0 -64 c0 -133 58 -206 162 -206 109 0 182 117 149 239 -25 94
-91 144 -313 237 -80 34 -171 76 -202 93 -129 74 -230 203 -260 331 -9 38 -16
113 -16 181 0 344 160 545 477 599 81 13 276 11 364 -5z m1189 -385 l0 -360
150 0 150 0 0 360 0 360 265 0 265 0 -2 -982 -3 -983 -260 0 -260 0 -3 403 -2
402 -150 0 -150 0 0 -405 0 -405 -260 0 -260 0 0 985 0 985 260 0 260 0 0
-360z m145 110 c-3 -5 -10 -10 -16 -10 -5 0 -9 5 -9 10 0 6 7 10 16 10 8 0 12
-4 9 -10z m885 -360 c0 -5 -4 -10 -10 -10 -5 0 -10 5 -10 10 0 6 5 10 10 10 6
0 10 -4 10 -10z m-860 -1395 c0 -8 -4 -15 -10 -15 -5 0 -10 7 -10 15 0 8 5 15
10 15 6 0 10 -7 10 -15z m-18 -280 c0 -5 -5 -11 -11 -13 -6 -2 -11 4 -11 13 0
9 5 15 11 13 6 -2 11 -8 11 -13z m-1282 -455 c0 -5 -4 -10 -10 -10 -5 0 -10 5
-10 10 0 6 5 10 10 10 6 0 10 -4 10 -10z"/>
<path d="M1762 5430 c-12 -12 -22 -27 -22 -35 0 -20 -19 -29 -35 -15 -10 8
-15 8 -22 -2 -17 -28 -42 -40 -59 -30 -20 11 -45 -14 -63 -61 -14 -35 11 -69
45 -61 13 3 30 2 37 -4 7 -6 34 -7 73 -1 34 5 87 7 118 6 43 -2 56 0 56 11 0
9 6 12 16 8 9 -4 22 -2 29 4 9 7 45 8 104 4 84 -6 91 -8 91 -28 0 -12 5 -27
12 -34 17 -17 57 -15 64 3 4 8 13 15 20 15 26 0 26 28 2 55 l-24 25 -22 -20
c-25 -24 -33 -25 -26 -5 7 18 -15 20 -51 3 -22 -10 -28 -8 -46 10 -11 12 -24
22 -29 22 -5 0 -13 12 -16 26 -5 18 -10 22 -17 15 -15 -15 -50 -14 -66 2 -6 6
-24 12 -39 12 -21 0 -27 6 -33 32 -13 64 -55 82 -97 43z"/>
<path d="M2203 5313 c9 -2 23 -2 30 0 6 3 -1 5 -18 5 -16 0 -22 -2 -12 -5z"/>
<path d="M2330 5220 c0 -5 5 -10 10 -10 6 0 10 5 10 10 0 6 -4 10 -10 10 -5 0
-10 -4 -10 -10z"/>
<path d="M4840 5060 c0 -5 9 -10 20 -10 11 0 20 5 20 10 0 6 -9 10 -20 10 -11
0 -20 -4 -20 -10z"/>
<path d="M3280 4981 c0 -11 -2 -26 -6 -34 -4 -11 8 -15 53 -20 32 -3 59 -11
61 -17 7 -20 19 -10 19 18 0 15 2 34 4 42 5 19 -37 26 -57 10 -11 -10 -19 -9
-39 4 -31 20 -35 20 -35 -3z"/>
<path d="M4817 4974 c-11 -11 3 -24 24 -24 12 0 19 5 17 13 -5 14 -31 21 -41
11z"/>
<path d="M1490 4760 c0 -5 6 -10 14 -10 8 0 18 5 21 10 3 6 -3 10 -14 10 -12
0 -21 -4 -21 -10z"/>
<path d="M1653 4739 c-26 -17 -38 -19 -67 -10 -38 10 -48 -1 -18 -18 15 -10
14 -13 -12 -37 -21 -18 -26 -28 -17 -33 13 -9 17 -38 7 -61 -4 -11 2 -19 24
-27 36 -13 43 -5 35 40 -6 32 -5 33 28 35 40 3 70 -25 65 -60 -2 -19 1 -23 22
-20 14 1 39 4 55 5 19 1 30 7 30 17 0 11 -9 14 -31 12 -26 -3 -37 3 -58 31
-14 19 -26 39 -26 45 0 7 -12 14 -27 18 -47 10 -54 14 -48 24 3 5 37 10 76 10
72 0 84 8 47 34 -29 20 -45 19 -85 -5z m-53 -84 c0 -8 -7 -15 -15 -15 -26 0
-18 20 13 29 1 1 2 -6 2 -14z"/>
<path d="M1900 4733 c-8 -2 -21 -6 -27 -8 -8 -3 0 -19 22 -42 l35 -38 22 23
23 23 -21 5 c-15 4 -20 11 -17 25 5 19 -6 23 -37 12z"/>
<path d="M4556 1704 c-5 -12 -14 -15 -36 -11 -23 5 -32 2 -40 -13 -13 -24 3
-35 46 -31 28 2 34 -2 53 -41 11 -25 21 -50 21 -56 0 -7 11 -18 25 -24 35 -16
31 -26 -10 -26 -19 0 -35 4 -35 9 0 11 -42 -9 -52 -25 -10 -15 41 -66 66 -66
11 0 30 10 43 22 35 32 84 28 122 -11 43 -43 73 -39 76 11 2 22 -4 22 -29 3
-26 -20 -36 -19 -36 3 0 10 -9 25 -20 35 -17 14 -18 21 -10 37 6 11 17 20 26
20 23 0 28 29 9 50 -13 14 -16 28 -11 52 5 30 3 36 -26 52 -30 18 -31 18 -45
1 -7 -11 -10 -28 -7 -39 13 -41 10 -51 -19 -54 -46 -5 -91 52 -57 73 17 10 11
21 -15 33 -33 15 -32 15 -39 -4z"/>
<path d="M2830 1265 c0 -8 7 -15 15 -15 8 0 15 7 15 15 0 8 -7 15 -15 15 -8 0
-15 -7 -15 -15z"/>
<path d="M1205 1211 c-3 -5 -1 -12 5 -16 5 -3 10 1 10 9 0 18 -6 21 -15 7z"/>
<path d="M2783 1191 c0 -17 -7 -39 -17 -50 -15 -17 -15 -19 -1 -25 25 -9 53
-7 74 6 15 9 24 8 46 -6 15 -10 28 -16 29 -14 1 2 7 20 13 40 13 45 9 50 -62
59 -27 3 -57 9 -66 13 -12 5 -16 0 -16 -23z"/>
<path d="M1230 1136 c0 -11 10 -16 31 -16 38 0 35 24 -4 28 -19 2 -27 -1 -27
-12z"/>
<path d="M1217 1023 c-25 -25 16 -37 44 -12 l22 19 -30 0 c-16 0 -33 -3 -36
-7z"/>
<path d="M1295 1020 c3 -5 10 -10 16 -10 5 0 9 5 9 10 0 6 -7 10 -16 10 -8 0
-12 -4 -9 -10z"/>
<path d="M4080 883 c-8 -4 -33 -24 -54 -46 -36 -37 -37 -41 -20 -47 11 -4 26
-20 34 -34 13 -24 12 -28 -8 -42 -33 -23 -27 -34 18 -34 38 0 40 2 40 30 0 21
4 28 14 24 7 -3 30 4 51 16 l37 21 34 -33 c18 -18 36 -45 40 -60 6 -31 15 -34
45 -15 18 10 23 9 39 -11 12 -15 28 -22 42 -20 20 3 23 -2 26 -33 2 -24 13
-45 31 -63 24 -23 32 -25 55 -16 14 5 39 21 54 35 15 15 42 32 60 40 17 8 32
21 32 29 0 19 20 26 43 14 10 -5 20 -8 21 -6 6 11 29 79 38 110 8 31 7 43 -6
64 -14 21 -23 24 -46 19 -15 -3 -31 -2 -34 3 -3 6 -40 9 -82 8 -41 -1 -77 1
-80 6 -3 4 -31 8 -64 8 -43 0 -59 -4 -64 -16 -4 -12 -14 -14 -37 -9 -25 6 -31
4 -36 -14 -7 -26 -30 -27 -56 -3 -11 9 -17 11 -13 5 5 -10 -3 -13 -31 -13 -37
0 -39 2 -52 45 -13 46 -29 54 -71 38z"/>
<path d="M3861 851 c-20 -13 23 -53 52 -49 31 4 36 38 5 38 -13 0 -28 4 -34
10 -5 5 -15 5 -23 1z"/>
<path d="M2627 754 c-8 -8 1 -24 14 -24 5 0 9 7 9 15 0 15 -12 20 -23 9z"/>
<path d="M2218 653 c7 -3 16 -2 19 1 4 3 -2 6 -13 5 -11 0 -14 -3 -6 -6z"/>
<path d="M2040 620 c0 -5 5 -10 11 -10 5 0 7 5 4 10 -3 6 -8 10 -11 10 -2 0
-4 -4 -4 -10z"/>
<path d="M2934 338 c-4 -6 -2 -14 4 -16 22 -7 13 -32 -10 -29 -18 2 -23 -5
-31 -40 -9 -46 -17 -52 -37 -28 -28 33 -54 6 -74 -76 -6 -26 -5 -26 42 -21 26
3 52 11 57 18 6 6 20 15 32 19 18 5 25 1 35 -19 14 -32 34 -34 41 -4 4 14 0
26 -11 34 -15 12 -14 13 9 14 15 0 29 -6 32 -14 8 -20 59 -24 73 -7 9 12 16
10 43 -10 26 -19 34 -21 40 -10 5 7 14 10 20 7 18 -11 13 -26 -9 -26 -25 0
-27 -35 -4 -48 19 -11 104 -4 119 9 5 6 3 9 -6 9 -12 0 -16 11 -15 44 1 32 -5
51 -20 68 -12 13 -24 31 -28 42 -4 11 -12 16 -21 12 -29 -11 -46 5 -40 35 7
30 -10 40 -31 19 -6 -6 -24 -2 -52 12 -38 20 -43 20 -55 6 -19 -25 -52 -28
-66 -7 -13 22 -27 24 -37 7z m172 -105 c-10 -10 -19 5 -10 18 6 11 8 11 12 0
2 -7 1 -15 -2 -18z m134 -74 c0 -6 -4 -7 -10 -4 -5 3 -10 11 -10 16 0 6 5 7
10 4 6 -3 10 -11 10 -16z"/>
<path d="M3532 275 c-15 -11 -32 -14 -51 -10 -32 7 -51 -9 -32 -28 6 -6 11
-21 11 -34 0 -13 7 -26 15 -29 8 -4 15 -15 15 -25 0 -12 13 -24 36 -34 35 -14
39 -14 99 15 35 17 70 30 78 30 33 0 171 40 185 53 12 13 12 18 -3 41 -19 28
-49 28 -71 0 -6 -8 -20 -14 -32 -14 -11 0 -22 -7 -26 -15 -7 -19 -26 -20 -26
-2 0 25 -37 48 -82 52 -23 3 -54 7 -68 10 -15 4 -34 0 -48 -10z"/>
<path d="M3880 182 c0 -7 -11 -17 -25 -22 -14 -5 -25 -14 -25 -20 0 -14 33
-12 54 3 15 11 17 18 8 33 -6 10 -12 13 -12 6z"/>
<path d="M2445 130 c27 -12 43 -12 25 0 -8 5 -22 9 -30 9 -10 0 -8 -3 5 -9z"/>
<path d="M2826 95 c-9 -24 -8 -25 15 -25 14 0 19 5 17 17 -4 23 -24 27 -32 8z"/>
<path d="M2931 54 c-12 -20 -20 -38 -17 -41 2 -2 23 -3 46 -1 l42 3 -27 28
c-15 15 -23 27 -16 27 6 0 11 5 11 10 0 21 -19 9 -39 -26z"/>
<path d="M3110 79 c0 -5 5 -7 10 -4 6 3 10 8 10 11 0 2 -4 4 -10 4 -5 0 -10
-5 -10 -11z"/>
<path d="M3280 64 c0 -23 25 -42 45 -34 19 7 18 8 -5 15 -14 4 -28 13 -32 19
-5 7 -8 7 -8 0z"/>
<path d="M3114 47 c-3 -9 -3 -21 1 -27 8 -13 45 -13 45 1 0 6 7 9 15 5 9 -3
15 0 15 9 0 8 -9 15 -19 15 -11 0 -26 3 -35 6 -9 4 -18 0 -22 -9z"/>
<path d="M2780 35 c-11 -13 -8 -15 20 -15 28 0 31 2 20 15 -7 8 -16 15 -20 15
-4 0 -13 -7 -20 -15z"/>
<path d="M3068 13 c6 -2 18 -2 25 0 6 3 1 5 -13 5 -14 0 -19 -2 -12 -5z"/>
</g>
</svg>
